<mxfile host="app.diagrams.net" modified="2024-05-02T19:29:32.503Z" agent="Mozilla/5.0 (Windows NT 10.0; Win64; x64; rv:125.0) Gecko/20100101 Firefox/125.0" etag="1dcazg6SEWYwLMpbfwH3" version="24.3.1" type="github">
  <diagram name="Page-1" id="LEZbWoxVUDS4-kTCrXxD">
    <mxGraphModel dx="794" dy="628" grid="1" gridSize="10" guides="1" tooltips="1" connect="1" arrows="1" fold="1" page="1" pageScale="1" pageWidth="850" pageHeight="1100" math="0" shadow="0">
      <root>
        <mxCell id="0" />
        <mxCell id="1" parent="0" />
        <mxCell id="K87021AXg9v8rqYW4FeP-1" value="&lt;div&gt;Administrator&lt;/div&gt;" style="shape=umlActor;verticalLabelPosition=bottom;verticalAlign=top;html=1;outlineConnect=0;" vertex="1" parent="1">
          <mxGeometry x="130" y="130" width="30" height="60" as="geometry" />
        </mxCell>
        <mxCell id="K87021AXg9v8rqYW4FeP-2" value="&lt;div&gt;UÅ¼ytkownik&lt;/div&gt;" style="shape=umlActor;verticalLabelPosition=bottom;verticalAlign=top;html=1;outlineConnect=0;" vertex="1" parent="1">
          <mxGeometry x="580" y="130" width="30" height="60" as="geometry" />
        </mxCell>
      </root>
    </mxGraphModel>
  </diagram>
</mxfile>
